<mxfile host="Electron" agent="Mozilla/5.0 (Windows NT 10.0; Win64; x64) AppleWebKit/537.36 (KHTML, like Gecko) draw.io/27.0.2 Chrome/134.0.6998.205 Electron/35.3.0 Safari/537.36" version="27.0.2">
  <diagram id="C5RBs43oDa-KdzZeNtuy" name="Page-1">
    <mxGraphModel dx="1426" dy="841" grid="1" gridSize="10" guides="1" tooltips="1" connect="1" arrows="1" fold="1" page="1" pageScale="1" pageWidth="827" pageHeight="1169" math="0" shadow="0">
      <root>
        <mxCell id="WIyWlLk6GJQsqaUBKTNV-0" />
        <mxCell id="WIyWlLk6GJQsqaUBKTNV-1" parent="WIyWlLk6GJQsqaUBKTNV-0" />
        <mxCell id="_L9KGP1lSlUrzWMtIWnS-0" value="User" style="shape=umlActor;verticalLabelPosition=bottom;verticalAlign=top;html=1;outlineConnect=0;fillColor=#dae8fc;strokeColor=#6c8ebf;" parent="WIyWlLk6GJQsqaUBKTNV-1" vertex="1">
          <mxGeometry x="50" y="180" width="30" height="60" as="geometry" />
        </mxCell>
        <mxCell id="_L9KGP1lSlUrzWMtIWnS-47" style="edgeStyle=orthogonalEdgeStyle;rounded=0;orthogonalLoop=1;jettySize=auto;html=1;entryX=0;entryY=0.5;entryDx=0;entryDy=0;" parent="WIyWlLk6GJQsqaUBKTNV-1" target="_L9KGP1lSlUrzWMtIWnS-42" edge="1">
          <mxGeometry relative="1" as="geometry">
            <mxPoint x="80" y="600" as="sourcePoint" />
          </mxGeometry>
        </mxCell>
        <mxCell id="_L9KGP1lSlUrzWMtIWnS-1" value="Admin" style="shape=umlActor;verticalLabelPosition=bottom;verticalAlign=top;html=1;outlineConnect=0;fillColor=#d5e8d4;strokeColor=#82b366;" parent="WIyWlLk6GJQsqaUBKTNV-1" vertex="1">
          <mxGeometry x="50" y="560" width="30" height="60" as="geometry" />
        </mxCell>
        <mxCell id="_L9KGP1lSlUrzWMtIWnS-2" value="" style="endArrow=none;html=1;rounded=0;" parent="WIyWlLk6GJQsqaUBKTNV-1" edge="1">
          <mxGeometry width="50" height="50" relative="1" as="geometry">
            <mxPoint x="120" y="1150" as="sourcePoint" />
            <mxPoint x="120" y="160" as="targetPoint" />
          </mxGeometry>
        </mxCell>
        <mxCell id="_L9KGP1lSlUrzWMtIWnS-3" value="Login" style="ellipse;whiteSpace=wrap;html=1;fillColor=#e1d5e7;strokeColor=#9673a6;" parent="WIyWlLk6GJQsqaUBKTNV-1" vertex="1">
          <mxGeometry x="130" y="250" width="90" height="60" as="geometry" />
        </mxCell>
        <mxCell id="_L9KGP1lSlUrzWMtIWnS-4" value="" style="endArrow=classic;html=1;rounded=0;entryX=0.272;entryY=0.082;entryDx=0;entryDy=0;entryPerimeter=0;" parent="WIyWlLk6GJQsqaUBKTNV-1" target="_L9KGP1lSlUrzWMtIWnS-3" edge="1">
          <mxGeometry width="50" height="50" relative="1" as="geometry">
            <mxPoint x="80" y="210" as="sourcePoint" />
            <mxPoint x="280" y="220" as="targetPoint" />
            <Array as="points" />
          </mxGeometry>
        </mxCell>
        <mxCell id="_L9KGP1lSlUrzWMtIWnS-6" value="" style="endArrow=classic;html=1;rounded=0;" parent="WIyWlLk6GJQsqaUBKTNV-1" source="_L9KGP1lSlUrzWMtIWnS-0" edge="1">
          <mxGeometry width="50" height="50" relative="1" as="geometry">
            <mxPoint x="110" y="250" as="sourcePoint" />
            <mxPoint x="160" y="210" as="targetPoint" />
          </mxGeometry>
        </mxCell>
        <mxCell id="_L9KGP1lSlUrzWMtIWnS-7" value="Register" style="ellipse;whiteSpace=wrap;html=1;fillColor=#e1d5e7;strokeColor=#9673a6;" parent="WIyWlLk6GJQsqaUBKTNV-1" vertex="1">
          <mxGeometry x="160" y="185" width="80" height="50" as="geometry" />
        </mxCell>
        <mxCell id="_L9KGP1lSlUrzWMtIWnS-8" value="Dashboard" style="ellipse;whiteSpace=wrap;html=1;fillColor=#f8cecc;strokeColor=#b85450;" parent="WIyWlLk6GJQsqaUBKTNV-1" vertex="1">
          <mxGeometry x="270" y="240" width="90" height="60" as="geometry" />
        </mxCell>
        <mxCell id="_L9KGP1lSlUrzWMtIWnS-13" value="Profil bearbeiten" style="ellipse;whiteSpace=wrap;html=1;fillColor=#dae8fc;strokeColor=#6c8ebf;" parent="WIyWlLk6GJQsqaUBKTNV-1" vertex="1">
          <mxGeometry x="500" y="80" width="100" height="70" as="geometry" />
        </mxCell>
        <mxCell id="_L9KGP1lSlUrzWMtIWnS-15" value="Abmelden" style="ellipse;whiteSpace=wrap;html=1;fillColor=#dae8fc;strokeColor=#6c8ebf;" parent="WIyWlLk6GJQsqaUBKTNV-1" vertex="1">
          <mxGeometry x="610" y="110" width="100" height="70" as="geometry" />
        </mxCell>
        <mxCell id="_L9KGP1lSlUrzWMtIWnS-17" value="Pritave Events erstellen" style="ellipse;whiteSpace=wrap;html=1;fillColor=#dae8fc;strokeColor=#6c8ebf;" parent="WIyWlLk6GJQsqaUBKTNV-1" vertex="1">
          <mxGeometry x="639.5" y="200" width="100" height="70" as="geometry" />
        </mxCell>
        <mxCell id="_L9KGP1lSlUrzWMtIWnS-20" value="Eigene Events anschauen" style="ellipse;whiteSpace=wrap;html=1;fillColor=#f8cecc;strokeColor=#b85450;" parent="WIyWlLk6GJQsqaUBKTNV-1" vertex="1">
          <mxGeometry x="461" y="290" width="100" height="70" as="geometry" />
        </mxCell>
        <mxCell id="_L9KGP1lSlUrzWMtIWnS-22" value="Öffentliche Events anschauen" style="ellipse;whiteSpace=wrap;html=1;fillColor=#f8cecc;strokeColor=#b85450;" parent="WIyWlLk6GJQsqaUBKTNV-1" vertex="1">
          <mxGeometry x="414" y="370" width="100" height="70" as="geometry" />
        </mxCell>
        <mxCell id="_L9KGP1lSlUrzWMtIWnS-24" value="Eigene Events bearbeiten" style="ellipse;whiteSpace=wrap;html=1;fillColor=#dae8fc;strokeColor=#6c8ebf;" parent="WIyWlLk6GJQsqaUBKTNV-1" vertex="1">
          <mxGeometry x="650" y="280" width="100" height="70" as="geometry" />
        </mxCell>
        <mxCell id="_L9KGP1lSlUrzWMtIWnS-26" value="&amp;nbsp;An öffentliche Events teilnehmen&lt;div&gt;(Wenn noch Plätze verfügbar sind)&lt;/div&gt;" style="ellipse;whiteSpace=wrap;html=1;fillColor=#dae8fc;strokeColor=#6c8ebf;" parent="WIyWlLk6GJQsqaUBKTNV-1" vertex="1">
          <mxGeometry x="610" y="360" width="159" height="80" as="geometry" />
        </mxCell>
        <mxCell id="_L9KGP1lSlUrzWMtIWnS-27" value="&amp;lt;&amp;lt;include&amp;gt;&amp;gt;" style="edgeStyle=none;html=1;endArrow=open;verticalAlign=bottom;dashed=1;labelBackgroundColor=none;rounded=0;exitX=1;exitY=1;exitDx=0;exitDy=0;entryX=0.05;entryY=0.269;entryDx=0;entryDy=0;entryPerimeter=0;" parent="WIyWlLk6GJQsqaUBKTNV-1" source="_L9KGP1lSlUrzWMtIWnS-7" target="_L9KGP1lSlUrzWMtIWnS-8" edge="1">
          <mxGeometry width="160" relative="1" as="geometry">
            <mxPoint x="130" y="250" as="sourcePoint" />
            <mxPoint x="290" y="250" as="targetPoint" />
          </mxGeometry>
        </mxCell>
        <mxCell id="_L9KGP1lSlUrzWMtIWnS-28" value="&amp;lt;&amp;lt;extend&amp;gt;&amp;gt;" style="edgeStyle=none;html=1;startArrow=open;endArrow=none;startSize=12;verticalAlign=bottom;dashed=1;labelBackgroundColor=none;rounded=0;entryX=0.437;entryY=1.017;entryDx=0;entryDy=0;entryPerimeter=0;exitX=0.689;exitY=-0.022;exitDx=0;exitDy=0;exitPerimeter=0;" parent="WIyWlLk6GJQsqaUBKTNV-1" source="_L9KGP1lSlUrzWMtIWnS-8" target="_L9KGP1lSlUrzWMtIWnS-13" edge="1">
          <mxGeometry width="160" relative="1" as="geometry">
            <mxPoint x="320" y="240" as="sourcePoint" />
            <mxPoint x="460" y="450" as="targetPoint" />
          </mxGeometry>
        </mxCell>
        <mxCell id="_L9KGP1lSlUrzWMtIWnS-29" value="&amp;lt;&amp;lt;extend&amp;gt;&amp;gt;" style="edgeStyle=none;html=1;startArrow=open;endArrow=none;startSize=12;verticalAlign=bottom;dashed=1;labelBackgroundColor=none;rounded=0;entryX=0.187;entryY=0.957;entryDx=0;entryDy=0;entryPerimeter=0;" parent="WIyWlLk6GJQsqaUBKTNV-1" source="_L9KGP1lSlUrzWMtIWnS-8" target="_L9KGP1lSlUrzWMtIWnS-15" edge="1">
          <mxGeometry width="160" relative="1" as="geometry">
            <mxPoint x="330" y="250" as="sourcePoint" />
            <mxPoint x="334" y="201" as="targetPoint" />
          </mxGeometry>
        </mxCell>
        <mxCell id="_L9KGP1lSlUrzWMtIWnS-30" value="&amp;lt;&amp;lt;extend&amp;gt;&amp;gt;" style="edgeStyle=none;html=1;startArrow=open;endArrow=none;startSize=12;verticalAlign=bottom;dashed=1;labelBackgroundColor=none;rounded=0;entryX=-0.022;entryY=0.636;entryDx=0;entryDy=0;entryPerimeter=0;exitX=1;exitY=0.5;exitDx=0;exitDy=0;" parent="WIyWlLk6GJQsqaUBKTNV-1" source="_L9KGP1lSlUrzWMtIWnS-8" target="_L9KGP1lSlUrzWMtIWnS-17" edge="1">
          <mxGeometry width="160" relative="1" as="geometry">
            <mxPoint x="350" y="255" as="sourcePoint" />
            <mxPoint x="409" y="197" as="targetPoint" />
          </mxGeometry>
        </mxCell>
        <mxCell id="_L9KGP1lSlUrzWMtIWnS-32" value="&amp;lt;&amp;lt;include&amp;gt;&amp;gt;" style="edgeStyle=none;html=1;endArrow=open;verticalAlign=bottom;dashed=1;labelBackgroundColor=none;rounded=0;entryX=0;entryY=0.429;entryDx=0;entryDy=0;entryPerimeter=0;exitX=0.948;exitY=0.714;exitDx=0;exitDy=0;exitPerimeter=0;" parent="WIyWlLk6GJQsqaUBKTNV-1" source="_L9KGP1lSlUrzWMtIWnS-8" target="_L9KGP1lSlUrzWMtIWnS-20" edge="1">
          <mxGeometry width="160" relative="1" as="geometry">
            <mxPoint x="350" y="280" as="sourcePoint" />
            <mxPoint x="510" y="280" as="targetPoint" />
          </mxGeometry>
        </mxCell>
        <mxCell id="_L9KGP1lSlUrzWMtIWnS-33" value="&amp;lt;&amp;lt;extend&amp;gt;&amp;gt;" style="edgeStyle=none;html=1;startArrow=open;endArrow=none;startSize=12;verticalAlign=bottom;dashed=1;labelBackgroundColor=none;rounded=0;entryX=0;entryY=0.5;entryDx=0;entryDy=0;exitX=0.99;exitY=0.429;exitDx=0;exitDy=0;exitPerimeter=0;" parent="WIyWlLk6GJQsqaUBKTNV-1" source="_L9KGP1lSlUrzWMtIWnS-20" target="_L9KGP1lSlUrzWMtIWnS-24" edge="1">
          <mxGeometry width="160" relative="1" as="geometry">
            <mxPoint x="371" y="271" as="sourcePoint" />
            <mxPoint x="469" y="220" as="targetPoint" />
          </mxGeometry>
        </mxCell>
        <mxCell id="_L9KGP1lSlUrzWMtIWnS-34" value="&amp;lt;&amp;lt;extend&amp;gt;&amp;gt;" style="edgeStyle=none;html=1;startArrow=open;endArrow=none;startSize=12;verticalAlign=bottom;dashed=1;labelBackgroundColor=none;rounded=0;entryX=0;entryY=0.5;entryDx=0;entryDy=0;exitX=0.997;exitY=0.398;exitDx=0;exitDy=0;exitPerimeter=0;" parent="WIyWlLk6GJQsqaUBKTNV-1" source="_L9KGP1lSlUrzWMtIWnS-22" target="_L9KGP1lSlUrzWMtIWnS-26" edge="1">
          <mxGeometry width="160" relative="1" as="geometry">
            <mxPoint x="490" y="362.5" as="sourcePoint" />
            <mxPoint x="570" y="357.5" as="targetPoint" />
          </mxGeometry>
        </mxCell>
        <mxCell id="_L9KGP1lSlUrzWMtIWnS-35" value="&amp;lt;&amp;lt;include&amp;gt;&amp;gt;" style="edgeStyle=none;html=1;endArrow=open;verticalAlign=bottom;dashed=1;labelBackgroundColor=none;rounded=0;exitX=0.828;exitY=0.964;exitDx=0;exitDy=0;exitPerimeter=0;" parent="WIyWlLk6GJQsqaUBKTNV-1" source="_L9KGP1lSlUrzWMtIWnS-8" target="_L9KGP1lSlUrzWMtIWnS-22" edge="1">
          <mxGeometry width="160" relative="1" as="geometry">
            <mxPoint x="350" y="310" as="sourcePoint" />
            <mxPoint x="430" y="300" as="targetPoint" />
          </mxGeometry>
        </mxCell>
        <mxCell id="_L9KGP1lSlUrzWMtIWnS-36" value="&amp;lt;&amp;lt;include&amp;gt;&amp;gt;" style="edgeStyle=none;html=1;endArrow=open;verticalAlign=bottom;dashed=1;labelBackgroundColor=none;rounded=0;" parent="WIyWlLk6GJQsqaUBKTNV-1" source="_L9KGP1lSlUrzWMtIWnS-3" target="_L9KGP1lSlUrzWMtIWnS-8" edge="1">
          <mxGeometry width="160" relative="1" as="geometry">
            <mxPoint x="220" y="320" as="sourcePoint" />
            <mxPoint x="380" y="320" as="targetPoint" />
          </mxGeometry>
        </mxCell>
        <mxCell id="_L9KGP1lSlUrzWMtIWnS-38" value="" style="endArrow=block;startArrow=none;endFill=0;startFill=0;endSize=8;html=1;verticalAlign=bottom;dashed=1;labelBackgroundColor=none;rounded=0;exitX=0.5;exitY=0;exitDx=0;exitDy=0;exitPerimeter=0;" parent="WIyWlLk6GJQsqaUBKTNV-1" source="_L9KGP1lSlUrzWMtIWnS-1" edge="1">
          <mxGeometry width="160" relative="1" as="geometry">
            <mxPoint x="-70" y="330" as="sourcePoint" />
            <mxPoint x="65" y="270" as="targetPoint" />
          </mxGeometry>
        </mxCell>
        <mxCell id="_L9KGP1lSlUrzWMtIWnS-40" value="" style="endArrow=none;html=1;rounded=0;exitX=0.5;exitY=0;exitDx=0;exitDy=0;exitPerimeter=0;" parent="WIyWlLk6GJQsqaUBKTNV-1" source="_L9KGP1lSlUrzWMtIWnS-1" edge="1">
          <mxGeometry width="50" height="50" relative="1" as="geometry">
            <mxPoint x="20" y="340" as="sourcePoint" />
            <mxPoint x="65" y="280" as="targetPoint" />
          </mxGeometry>
        </mxCell>
        <mxCell id="_L9KGP1lSlUrzWMtIWnS-42" value="Login" style="ellipse;whiteSpace=wrap;html=1;fillColor=#e1d5e7;strokeColor=#9673a6;" parent="WIyWlLk6GJQsqaUBKTNV-1" vertex="1">
          <mxGeometry x="155" y="570" width="90" height="60" as="geometry" />
        </mxCell>
        <mxCell id="_L9KGP1lSlUrzWMtIWnS-48" value="Benutzer Seite" style="ellipse;whiteSpace=wrap;html=1;fillColor=#f8cecc;strokeColor=#b85450;" parent="WIyWlLk6GJQsqaUBKTNV-1" vertex="1">
          <mxGeometry x="290" y="630" width="90" height="60" as="geometry" />
        </mxCell>
        <mxCell id="_L9KGP1lSlUrzWMtIWnS-49" value="&amp;lt;&amp;lt;include&amp;gt;&amp;gt;" style="edgeStyle=none;html=1;endArrow=open;verticalAlign=bottom;dashed=1;labelBackgroundColor=none;rounded=0;entryX=0;entryY=0.5;entryDx=0;entryDy=0;exitX=1;exitY=0.5;exitDx=0;exitDy=0;" parent="WIyWlLk6GJQsqaUBKTNV-1" source="_L9KGP1lSlUrzWMtIWnS-42" target="_L9KGP1lSlUrzWMtIWnS-48" edge="1">
          <mxGeometry width="160" relative="1" as="geometry">
            <mxPoint x="260" y="602" as="sourcePoint" />
            <mxPoint x="310" y="598" as="targetPoint" />
          </mxGeometry>
        </mxCell>
        <mxCell id="_L9KGP1lSlUrzWMtIWnS-51" value="Benutzer Liste anschauen" style="ellipse;whiteSpace=wrap;html=1;fillColor=#f8cecc;strokeColor=#b85450;" parent="WIyWlLk6GJQsqaUBKTNV-1" vertex="1">
          <mxGeometry x="340" y="540" width="100" height="70" as="geometry" />
        </mxCell>
        <mxCell id="_L9KGP1lSlUrzWMtIWnS-52" value="Benutzer&amp;nbsp; bearbeiten" style="ellipse;whiteSpace=wrap;html=1;fillColor=#dae8fc;strokeColor=#6c8ebf;" parent="WIyWlLk6GJQsqaUBKTNV-1" vertex="1">
          <mxGeometry x="727" y="540" width="100" height="70" as="geometry" />
        </mxCell>
        <mxCell id="_L9KGP1lSlUrzWMtIWnS-54" value="&amp;lt;&amp;lt;include&amp;gt;&amp;gt;" style="html=1;verticalAlign=bottom;labelBackgroundColor=none;endArrow=open;endFill=0;dashed=1;rounded=0;entryX=0;entryY=0.643;entryDx=0;entryDy=0;entryPerimeter=0;" parent="WIyWlLk6GJQsqaUBKTNV-1" source="_L9KGP1lSlUrzWMtIWnS-48" target="_L9KGP1lSlUrzWMtIWnS-51" edge="1">
          <mxGeometry width="160" relative="1" as="geometry">
            <mxPoint x="260" y="590" as="sourcePoint" />
            <mxPoint x="420" y="590" as="targetPoint" />
          </mxGeometry>
        </mxCell>
        <mxCell id="_L9KGP1lSlUrzWMtIWnS-55" value="&amp;lt;&amp;lt;extend&amp;gt;&amp;gt;" style="edgeStyle=none;html=1;startArrow=open;endArrow=none;startSize=12;verticalAlign=bottom;dashed=1;labelBackgroundColor=none;rounded=0;entryX=0;entryY=0.5;entryDx=0;entryDy=0;exitX=1;exitY=0.5;exitDx=0;exitDy=0;" parent="WIyWlLk6GJQsqaUBKTNV-1" source="_L9KGP1lSlUrzWMtIWnS-56" edge="1">
          <mxGeometry width="160" relative="1" as="geometry">
            <mxPoint x="514" y="610" as="sourcePoint" />
            <mxPoint x="727" y="575" as="targetPoint" />
          </mxGeometry>
        </mxCell>
        <mxCell id="_L9KGP1lSlUrzWMtIWnS-56" value="Benutzerdetails anschauen" style="ellipse;whiteSpace=wrap;html=1;fillColor=#dae8fc;strokeColor=#6c8ebf;" parent="WIyWlLk6GJQsqaUBKTNV-1" vertex="1">
          <mxGeometry x="514" y="540" width="100" height="70" as="geometry" />
        </mxCell>
        <mxCell id="_L9KGP1lSlUrzWMtIWnS-57" value="&amp;lt;&amp;lt;extend&amp;gt;&amp;gt;" style="edgeStyle=none;html=1;startArrow=open;endArrow=none;startSize=12;verticalAlign=bottom;dashed=1;labelBackgroundColor=none;rounded=0;exitX=1;exitY=0.5;exitDx=0;exitDy=0;" parent="WIyWlLk6GJQsqaUBKTNV-1" source="_L9KGP1lSlUrzWMtIWnS-51" target="_L9KGP1lSlUrzWMtIWnS-56" edge="1">
          <mxGeometry width="160" relative="1" as="geometry">
            <mxPoint x="560" y="610" as="sourcePoint" />
            <mxPoint x="660" y="610" as="targetPoint" />
          </mxGeometry>
        </mxCell>
        <mxCell id="_L9KGP1lSlUrzWMtIWnS-58" value="Benutzer Nach ID / Name filtern" style="ellipse;whiteSpace=wrap;html=1;fillColor=#dae8fc;strokeColor=#6c8ebf;" parent="WIyWlLk6GJQsqaUBKTNV-1" vertex="1">
          <mxGeometry x="461" y="620" width="119" height="70" as="geometry" />
        </mxCell>
        <mxCell id="_L9KGP1lSlUrzWMtIWnS-59" value="&amp;lt;&amp;lt;extend&amp;gt;&amp;gt;" style="edgeStyle=none;html=1;startArrow=open;endArrow=none;startSize=12;verticalAlign=bottom;dashed=1;labelBackgroundColor=none;rounded=0;exitX=1.004;exitY=0.325;exitDx=0;exitDy=0;entryX=-0.022;entryY=0.421;entryDx=0;entryDy=0;entryPerimeter=0;exitPerimeter=0;" parent="WIyWlLk6GJQsqaUBKTNV-1" source="_L9KGP1lSlUrzWMtIWnS-48" target="_L9KGP1lSlUrzWMtIWnS-58" edge="1">
          <mxGeometry width="160" relative="1" as="geometry">
            <mxPoint x="450" y="585" as="sourcePoint" />
            <mxPoint x="524" y="585" as="targetPoint" />
          </mxGeometry>
        </mxCell>
        <mxCell id="_L9KGP1lSlUrzWMtIWnS-60" value="Benutzer&amp;nbsp; löschen" style="ellipse;whiteSpace=wrap;html=1;fillColor=#dae8fc;strokeColor=#6c8ebf;" parent="WIyWlLk6GJQsqaUBKTNV-1" vertex="1">
          <mxGeometry x="727" y="620" width="100" height="70" as="geometry" />
        </mxCell>
        <mxCell id="_L9KGP1lSlUrzWMtIWnS-61" value="&amp;lt;&amp;lt;extend&amp;gt;&amp;gt;" style="edgeStyle=none;html=1;startArrow=open;endArrow=none;startSize=12;verticalAlign=bottom;dashed=1;labelBackgroundColor=none;rounded=0;entryX=0;entryY=0.5;entryDx=0;entryDy=0;" parent="WIyWlLk6GJQsqaUBKTNV-1" source="_L9KGP1lSlUrzWMtIWnS-56" edge="1">
          <mxGeometry width="160" relative="1" as="geometry">
            <mxPoint x="610" y="645" as="sourcePoint" />
            <mxPoint x="727" y="655" as="targetPoint" />
          </mxGeometry>
        </mxCell>
        <mxCell id="_L9KGP1lSlUrzWMtIWnS-62" value="Abmelden" style="ellipse;whiteSpace=wrap;html=1;fillColor=#dae8fc;strokeColor=#6c8ebf;" parent="WIyWlLk6GJQsqaUBKTNV-1" vertex="1">
          <mxGeometry x="140.5" y="680" width="79.5" height="40" as="geometry" />
        </mxCell>
        <mxCell id="_L9KGP1lSlUrzWMtIWnS-63" value="&amp;lt;&amp;lt;extend&amp;gt;&amp;gt;" style="edgeStyle=none;html=1;startArrow=open;endArrow=none;startSize=12;verticalAlign=bottom;dashed=1;labelBackgroundColor=none;rounded=0;" parent="WIyWlLk6GJQsqaUBKTNV-1" source="_L9KGP1lSlUrzWMtIWnS-48" target="_L9KGP1lSlUrzWMtIWnS-62" edge="1">
          <mxGeometry width="160" relative="1" as="geometry">
            <mxPoint x="380" y="730" as="sourcePoint" />
            <mxPoint x="524" y="665" as="targetPoint" />
          </mxGeometry>
        </mxCell>
        <mxCell id="_L9KGP1lSlUrzWMtIWnS-64" value="Neuer Benutzer hinzufügen&lt;div&gt;(Als User oder Admin)&lt;/div&gt;" style="ellipse;whiteSpace=wrap;html=1;fillColor=#dae8fc;strokeColor=#6c8ebf;" parent="WIyWlLk6GJQsqaUBKTNV-1" vertex="1">
          <mxGeometry x="150" y="729" width="140" height="71" as="geometry" />
        </mxCell>
        <mxCell id="_L9KGP1lSlUrzWMtIWnS-65" value="&amp;lt;&amp;lt;extend&amp;gt;&amp;gt;" style="edgeStyle=none;html=1;startArrow=open;endArrow=none;startSize=12;verticalAlign=bottom;dashed=1;labelBackgroundColor=none;rounded=0;exitX=0.337;exitY=0.978;exitDx=0;exitDy=0;exitPerimeter=0;" parent="WIyWlLk6GJQsqaUBKTNV-1" source="_L9KGP1lSlUrzWMtIWnS-48" target="_L9KGP1lSlUrzWMtIWnS-64" edge="1">
          <mxGeometry width="160" relative="1" as="geometry">
            <mxPoint x="332.5" y="720" as="sourcePoint" />
            <mxPoint x="563.5" y="714" as="targetPoint" />
          </mxGeometry>
        </mxCell>
        <mxCell id="_L9KGP1lSlUrzWMtIWnS-66" value="Zum Dashboard" style="ellipse;whiteSpace=wrap;html=1;fillColor=#dae8fc;strokeColor=#6c8ebf;" parent="WIyWlLk6GJQsqaUBKTNV-1" vertex="1">
          <mxGeometry x="310" y="729" width="100" height="61" as="geometry" />
        </mxCell>
        <mxCell id="_L9KGP1lSlUrzWMtIWnS-69" value="Profil bearbeiten" style="ellipse;whiteSpace=wrap;html=1;fillColor=#dae8fc;strokeColor=#6c8ebf;" parent="WIyWlLk6GJQsqaUBKTNV-1" vertex="1">
          <mxGeometry x="569" y="700" width="100" height="70" as="geometry" />
        </mxCell>
        <mxCell id="_L9KGP1lSlUrzWMtIWnS-70" value="Abmelden" style="ellipse;whiteSpace=wrap;html=1;fillColor=#dae8fc;strokeColor=#6c8ebf;" parent="WIyWlLk6GJQsqaUBKTNV-1" vertex="1">
          <mxGeometry x="669" y="770" width="100" height="70" as="geometry" />
        </mxCell>
        <mxCell id="_L9KGP1lSlUrzWMtIWnS-71" value="Private Events erstellen" style="ellipse;whiteSpace=wrap;html=1;fillColor=#dae8fc;strokeColor=#6c8ebf;" parent="WIyWlLk6GJQsqaUBKTNV-1" vertex="1">
          <mxGeometry x="697.5" y="860" width="100" height="70" as="geometry" />
        </mxCell>
        <mxCell id="_L9KGP1lSlUrzWMtIWnS-72" value="Eigene Events anschauen" style="ellipse;whiteSpace=wrap;html=1;fillColor=#f8cecc;strokeColor=#b85450;" parent="WIyWlLk6GJQsqaUBKTNV-1" vertex="1">
          <mxGeometry x="519" y="900" width="100" height="70" as="geometry" />
        </mxCell>
        <mxCell id="_L9KGP1lSlUrzWMtIWnS-73" value="Öffentliche Events anschauen" style="ellipse;whiteSpace=wrap;html=1;fillColor=#f8cecc;strokeColor=#b85450;" parent="WIyWlLk6GJQsqaUBKTNV-1" vertex="1">
          <mxGeometry x="380" y="930" width="100" height="70" as="geometry" />
        </mxCell>
        <mxCell id="_L9KGP1lSlUrzWMtIWnS-74" value="Eigene Events bearbeiten" style="ellipse;whiteSpace=wrap;html=1;fillColor=#dae8fc;strokeColor=#6c8ebf;" parent="WIyWlLk6GJQsqaUBKTNV-1" vertex="1">
          <mxGeometry x="697.5" y="950" width="100" height="70" as="geometry" />
        </mxCell>
        <mxCell id="_L9KGP1lSlUrzWMtIWnS-75" value="An öffentliche Events teilnehmen&lt;div&gt;(Wenn noch freien Platz verfügbar ist)&lt;/div&gt;" style="ellipse;whiteSpace=wrap;html=1;fillColor=#dae8fc;strokeColor=#6c8ebf;" parent="WIyWlLk6GJQsqaUBKTNV-1" vertex="1">
          <mxGeometry x="561" y="1010" width="159" height="80" as="geometry" />
        </mxCell>
        <mxCell id="_L9KGP1lSlUrzWMtIWnS-76" value="&amp;lt;&amp;lt;extend&amp;gt;&amp;gt;" style="edgeStyle=none;html=1;startArrow=open;endArrow=none;startSize=12;verticalAlign=bottom;dashed=1;labelBackgroundColor=none;rounded=0;entryX=0.437;entryY=1.017;entryDx=0;entryDy=0;entryPerimeter=0;exitX=1;exitY=0.5;exitDx=0;exitDy=0;" parent="WIyWlLk6GJQsqaUBKTNV-1" source="_L9KGP1lSlUrzWMtIWnS-66" target="_L9KGP1lSlUrzWMtIWnS-69" edge="1">
          <mxGeometry x="0.0047" width="160" relative="1" as="geometry">
            <mxPoint x="390" y="849" as="sourcePoint" />
            <mxPoint x="518" y="1060" as="targetPoint" />
            <mxPoint as="offset" />
          </mxGeometry>
        </mxCell>
        <mxCell id="_L9KGP1lSlUrzWMtIWnS-77" value="&amp;lt;&amp;lt;extend&amp;gt;&amp;gt;" style="edgeStyle=none;html=1;startArrow=open;endArrow=none;startSize=12;verticalAlign=bottom;dashed=1;labelBackgroundColor=none;rounded=0;entryX=0.187;entryY=0.957;entryDx=0;entryDy=0;entryPerimeter=0;" parent="WIyWlLk6GJQsqaUBKTNV-1" source="_L9KGP1lSlUrzWMtIWnS-66" target="_L9KGP1lSlUrzWMtIWnS-70" edge="1">
          <mxGeometry width="160" relative="1" as="geometry">
            <mxPoint x="414" y="868" as="sourcePoint" />
            <mxPoint x="392" y="811" as="targetPoint" />
          </mxGeometry>
        </mxCell>
        <mxCell id="_L9KGP1lSlUrzWMtIWnS-78" value="&amp;lt;&amp;lt;extend&amp;gt;&amp;gt;" style="edgeStyle=none;html=1;startArrow=open;endArrow=none;startSize=12;verticalAlign=bottom;dashed=1;labelBackgroundColor=none;rounded=0;entryX=-0.022;entryY=0.636;entryDx=0;entryDy=0;entryPerimeter=0;exitX=0.778;exitY=0.869;exitDx=0;exitDy=0;exitPerimeter=0;" parent="WIyWlLk6GJQsqaUBKTNV-1" source="_L9KGP1lSlUrzWMtIWnS-66" target="_L9KGP1lSlUrzWMtIWnS-71" edge="1">
          <mxGeometry width="160" relative="1" as="geometry">
            <mxPoint x="418" y="880" as="sourcePoint" />
            <mxPoint x="467" y="807" as="targetPoint" />
          </mxGeometry>
        </mxCell>
        <mxCell id="_L9KGP1lSlUrzWMtIWnS-79" value="&amp;lt;&amp;lt;include&amp;gt;&amp;gt;" style="edgeStyle=none;html=1;endArrow=open;verticalAlign=bottom;dashed=1;labelBackgroundColor=none;rounded=0;entryX=0;entryY=0.429;entryDx=0;entryDy=0;entryPerimeter=0;exitX=0.678;exitY=1.005;exitDx=0;exitDy=0;exitPerimeter=0;" parent="WIyWlLk6GJQsqaUBKTNV-1" source="_L9KGP1lSlUrzWMtIWnS-66" target="_L9KGP1lSlUrzWMtIWnS-72" edge="1">
          <mxGeometry width="160" relative="1" as="geometry">
            <mxPoint x="413" y="893" as="sourcePoint" />
            <mxPoint x="568" y="890" as="targetPoint" />
          </mxGeometry>
        </mxCell>
        <mxCell id="_L9KGP1lSlUrzWMtIWnS-80" value="&amp;lt;&amp;lt;extend&amp;gt;&amp;gt;" style="edgeStyle=none;html=1;startArrow=open;endArrow=none;startSize=12;verticalAlign=bottom;dashed=1;labelBackgroundColor=none;rounded=0;entryX=0;entryY=0.5;entryDx=0;entryDy=0;exitX=0.99;exitY=0.429;exitDx=0;exitDy=0;exitPerimeter=0;" parent="WIyWlLk6GJQsqaUBKTNV-1" source="_L9KGP1lSlUrzWMtIWnS-72" target="_L9KGP1lSlUrzWMtIWnS-74" edge="1">
          <mxGeometry width="160" relative="1" as="geometry">
            <mxPoint x="429" y="881" as="sourcePoint" />
            <mxPoint x="527" y="830" as="targetPoint" />
          </mxGeometry>
        </mxCell>
        <mxCell id="_L9KGP1lSlUrzWMtIWnS-81" value="&amp;lt;&amp;lt;extend&amp;gt;&amp;gt;" style="edgeStyle=none;html=1;startArrow=open;endArrow=none;startSize=12;verticalAlign=bottom;dashed=1;labelBackgroundColor=none;rounded=0;entryX=0;entryY=0.5;entryDx=0;entryDy=0;exitX=0.997;exitY=0.398;exitDx=0;exitDy=0;exitPerimeter=0;" parent="WIyWlLk6GJQsqaUBKTNV-1" source="_L9KGP1lSlUrzWMtIWnS-73" target="_L9KGP1lSlUrzWMtIWnS-75" edge="1">
          <mxGeometry width="160" relative="1" as="geometry">
            <mxPoint x="548" y="972.5" as="sourcePoint" />
            <mxPoint x="628" y="967.5" as="targetPoint" />
          </mxGeometry>
        </mxCell>
        <mxCell id="_L9KGP1lSlUrzWMtIWnS-82" value="&amp;lt;&amp;lt;include&amp;gt;&amp;gt;" style="edgeStyle=none;html=1;endArrow=open;verticalAlign=bottom;dashed=1;labelBackgroundColor=none;rounded=0;exitX=0.5;exitY=1;exitDx=0;exitDy=0;" parent="WIyWlLk6GJQsqaUBKTNV-1" source="_L9KGP1lSlUrzWMtIWnS-66" target="_L9KGP1lSlUrzWMtIWnS-73" edge="1">
          <mxGeometry width="160" relative="1" as="geometry">
            <mxPoint x="403" y="908" as="sourcePoint" />
            <mxPoint x="488" y="910" as="targetPoint" />
          </mxGeometry>
        </mxCell>
        <mxCell id="_L9KGP1lSlUrzWMtIWnS-83" value="Öffentliche Events erstellen&lt;div&gt;(Wenn Termin Datum und Uhrzeit und Raum Frei ist)&lt;br&gt;&lt;div&gt;&lt;br&gt;&lt;/div&gt;&lt;/div&gt;" style="ellipse;whiteSpace=wrap;html=1;fillColor=#dae8fc;strokeColor=#6c8ebf;" parent="WIyWlLk6GJQsqaUBKTNV-1" vertex="1">
          <mxGeometry x="240" y="960" width="145" height="110" as="geometry" />
        </mxCell>
        <mxCell id="_L9KGP1lSlUrzWMtIWnS-85" value="Öffentliche Events bearbeiten (eigene)" style="ellipse;whiteSpace=wrap;html=1;fillColor=#dae8fc;strokeColor=#6c8ebf;" parent="WIyWlLk6GJQsqaUBKTNV-1" vertex="1">
          <mxGeometry x="480" y="1080" width="110" height="69.98" as="geometry" />
        </mxCell>
        <mxCell id="_L9KGP1lSlUrzWMtIWnS-86" value="&amp;lt;&amp;lt;extend&amp;gt;&amp;gt;" style="edgeStyle=none;html=1;startArrow=open;endArrow=none;startSize=12;verticalAlign=bottom;dashed=1;labelBackgroundColor=none;rounded=0;entryX=0.009;entryY=0.357;entryDx=0;entryDy=0;exitX=0.6;exitY=0.986;exitDx=0;exitDy=0;exitPerimeter=0;entryPerimeter=0;" parent="WIyWlLk6GJQsqaUBKTNV-1" source="_L9KGP1lSlUrzWMtIWnS-83" target="_L9KGP1lSlUrzWMtIWnS-85" edge="1">
          <mxGeometry width="160" relative="1" as="geometry">
            <mxPoint x="150.5" y="1000" as="sourcePoint" />
            <mxPoint x="-90.5" y="930.02" as="targetPoint" />
          </mxGeometry>
        </mxCell>
        <mxCell id="_L9KGP1lSlUrzWMtIWnS-87" value="&amp;lt;&amp;lt;extend&amp;gt;&amp;gt;" style="edgeStyle=none;html=1;startArrow=open;endArrow=none;startSize=12;verticalAlign=bottom;dashed=1;labelBackgroundColor=none;rounded=0;entryX=0.3;entryY=0;entryDx=0;entryDy=0;entryPerimeter=0;exitX=0;exitY=1;exitDx=0;exitDy=0;" parent="WIyWlLk6GJQsqaUBKTNV-1" source="_L9KGP1lSlUrzWMtIWnS-66" target="_L9KGP1lSlUrzWMtIWnS-83" edge="1">
          <mxGeometry width="160" relative="1" as="geometry">
            <mxPoint x="398" y="792" as="sourcePoint" />
            <mxPoint x="705" y="915" as="targetPoint" />
          </mxGeometry>
        </mxCell>
        <mxCell id="_L9KGP1lSlUrzWMtIWnS-89" value="&lt;div&gt;&lt;b&gt;&lt;u&gt;&lt;font face=&quot;Times New Roman&quot; style=&quot;color: rgb(1, 1, 1); font-size: 14px;&quot;&gt;Mitarbeiterportal&lt;/font&gt;&lt;/u&gt;&lt;/b&gt;&lt;/div&gt;&lt;div&gt;&lt;font face=&quot;Times New Roman&quot; style=&quot;color: rgb(1, 1, 1); font-size: 14px;&quot;&gt;Ein webbasiertes Verwaltungsportal für Events und Benutzerrollen&lt;/font&gt;&lt;/div&gt;&lt;div&gt;&lt;font face=&quot;Times New Roman&quot; style=&quot;color: rgb(1, 1, 1); font-size: 14px;&quot;&gt;&lt;b&gt;&lt;u&gt;Projekttyp: &lt;/u&gt;&lt;/b&gt;Angular Frontend + Node.js Backend&amp;nbsp;&amp;nbsp;&lt;/font&gt;&lt;/div&gt;&lt;div&gt;&lt;font face=&quot;Times New Roman&quot; style=&quot;color: rgb(1, 1, 1); font-size: 14px;&quot;&gt;&lt;b&gt;&lt;u&gt;Erstellt von:&lt;/u&gt;&lt;/b&gt; Merve Koc&amp;nbsp;&amp;nbsp;&lt;/font&gt;&lt;/div&gt;&lt;div&gt;&lt;font face=&quot;Times New Roman&quot; style=&quot;color: rgb(1, 1, 1); font-size: 14px;&quot;&gt;&lt;b style=&quot;&quot;&gt;&lt;u&gt;Zeitraum: &lt;/u&gt;&lt;/b&gt;April – Mai 2025&amp;nbsp;&amp;nbsp;&lt;/font&gt;&lt;/div&gt;&lt;div&gt;&lt;font style=&quot;font-size: 14px;&quot; face=&quot;Times New Roman&quot;&gt;&lt;br&gt;&lt;/font&gt;&lt;/div&gt;&lt;div&gt;&lt;br&gt;&lt;/div&gt;" style="rounded=0;whiteSpace=wrap;html=1;align=left;fillColor=light-dark(#77D7C0,#4A890C);fontColor=#ffffff;strokeColor=#2D7600;" parent="WIyWlLk6GJQsqaUBKTNV-1" vertex="1">
          <mxGeometry x="30" y="10" width="360" height="130" as="geometry" />
        </mxCell>
        <mxCell id="_L9KGP1lSlUrzWMtIWnS-91" value="&amp;lt;&amp;lt;extend&amp;gt;&amp;gt;" style="edgeStyle=none;html=1;startArrow=open;endArrow=none;startSize=12;verticalAlign=bottom;dashed=1;labelBackgroundColor=none;rounded=0;entryX=0.587;entryY=0.017;entryDx=0;entryDy=0;entryPerimeter=0;exitX=0.747;exitY=0.906;exitDx=0;exitDy=0;exitPerimeter=0;" parent="WIyWlLk6GJQsqaUBKTNV-1" source="_L9KGP1lSlUrzWMtIWnS-48" target="_L9KGP1lSlUrzWMtIWnS-66" edge="1">
          <mxGeometry width="160" relative="1" as="geometry">
            <mxPoint x="360" y="690" as="sourcePoint" />
            <mxPoint x="468" y="659" as="targetPoint" />
          </mxGeometry>
        </mxCell>
        <mxCell id="_L9KGP1lSlUrzWMtIWnS-92" value="Events als Favoriten markieren &amp;amp; favorite Events auflisten&amp;nbsp;" style="ellipse;whiteSpace=wrap;html=1;fillColor=#dae8fc;strokeColor=#6c8ebf;" parent="WIyWlLk6GJQsqaUBKTNV-1" vertex="1">
          <mxGeometry x="270" y="370" width="130" height="85" as="geometry" />
        </mxCell>
        <mxCell id="_L9KGP1lSlUrzWMtIWnS-93" value="Events als Favoriten markieren &amp;amp; favorite Events auflisten&amp;nbsp;" style="ellipse;whiteSpace=wrap;html=1;fillColor=#dae8fc;strokeColor=#6c8ebf;" parent="WIyWlLk6GJQsqaUBKTNV-1" vertex="1">
          <mxGeometry x="140" y="880" width="125" height="90" as="geometry" />
        </mxCell>
        <mxCell id="_L9KGP1lSlUrzWMtIWnS-94" value="&amp;lt;&amp;lt;extend&amp;gt;&amp;gt;" style="edgeStyle=none;html=1;startArrow=open;endArrow=none;startSize=12;verticalAlign=bottom;dashed=1;labelBackgroundColor=none;rounded=0;entryX=1;entryY=0;entryDx=0;entryDy=0;exitX=0;exitY=0.5;exitDx=0;exitDy=0;" parent="WIyWlLk6GJQsqaUBKTNV-1" source="_L9KGP1lSlUrzWMtIWnS-66" target="_L9KGP1lSlUrzWMtIWnS-93" edge="1">
          <mxGeometry width="160" relative="1" as="geometry">
            <mxPoint x="335" y="791" as="sourcePoint" />
            <mxPoint x="294" y="970" as="targetPoint" />
          </mxGeometry>
        </mxCell>
        <mxCell id="_L9KGP1lSlUrzWMtIWnS-95" value="&amp;lt;&amp;lt;extend&amp;gt;&amp;gt;" style="edgeStyle=none;html=1;startArrow=open;endArrow=none;startSize=12;verticalAlign=bottom;dashed=1;labelBackgroundColor=none;rounded=0;entryX=0.357;entryY=0.049;entryDx=0;entryDy=0;entryPerimeter=0;" parent="WIyWlLk6GJQsqaUBKTNV-1" source="_L9KGP1lSlUrzWMtIWnS-8" target="_L9KGP1lSlUrzWMtIWnS-92" edge="1">
          <mxGeometry width="160" relative="1" as="geometry">
            <mxPoint x="524" y="408" as="sourcePoint" />
            <mxPoint x="620" y="410" as="targetPoint" />
          </mxGeometry>
        </mxCell>
      </root>
    </mxGraphModel>
  </diagram>
</mxfile>
